<?xml version="1.0" encoding="UTF-8"?>
<svg id="Layer_1" xmlns="http://www.w3.org/2000/svg" version="1.1" xmlns:xlink="http://www.w3.org/1999/xlink" viewBox="0 0 3299.06 3299.06">
  <defs>
    <style>
      .st0 { stroke: url(#radial-gradient); }
      .st0, .st1 { fill: none; stroke-miterlimit: 10; stroke-width: 2px; }
      .st2 { fill: url(#linear-gradient10); }
      .st3 { fill: url(#linear-gradient1); }
      .st4 { fill: url(#linear-gradient9); }
      .st5 { fill: url(#linear-gradient8); }
      .st6 { fill: url(#linear-gradient11); }
      .st7 { fill: #d4af37; }
      .st8 { fill: url(#radial-gradient1); }
      .st9 { filter: url(#drop-shadow-1); }
      .st10 { fill: url(#linear-gradient7); }
      .st11 { fill: url(#linear-gradient4); }
      .st1 { stroke: url(#linear-gradient2); }
      .st12 { fill: url(#linear-gradient5); }
      .st13 { fill: url(#linear-gradient3); }
      .st14 { fill: url(#radial-gradient2); }
      .st15 { fill: url(#linear-gradient6); }
      .st16 { fill: url(#linear-gradient); }
    </style>
    <linearGradient id="linear-gradient" x1="436.1" y1="1305.94" x2="1591.2" y2="1946.03" gradientTransform="translate(0 3300) scale(1 -1)" gradientUnits="userSpaceOnUse">
      <stop offset=".07" stop-color="#996731"/>
      <stop offset=".31" stop-color="#af874f"/>
      <stop offset=".85" stop-color="#ead89a"/>
      <stop offset="1" stop-color="#fbf0b1"/>
    </linearGradient>
    <linearGradient id="linear-gradient1" x1="707.5" y1="1650.86" x2="1409.66" y2="1650.86" gradientTransform="translate(0 3300) scale(1 -1)" gradientUnits="userSpaceOnUse">
      <stop offset="0" stop-color="#050829"/>
      <stop offset="1" stop-color="#212e4c"/>
    </linearGradient>
    <radialGradient id="radial-gradient" cx="924.3" cy="1671.58" fx="924.3" fy="1671.58" r="235.84" gradientTransform="translate(0 3300) scale(1 -1)" gradientUnits="userSpaceOnUse">
      <stop offset="0" stop-color="#faf1af"/>
      <stop offset=".12" stop-color="#f6eba9"/>
      <stop offset=".28" stop-color="#ebdc9a"/>
      <stop offset=".45" stop-color="#dac280"/>
      <stop offset=".63" stop-color="#c29f5d"/>
      <stop offset=".76" stop-color="#ae813f"/>
    </radialGradient>
    <linearGradient id="linear-gradient2" x1="1094.75" y1="1603.55" x2="1363.89" y2="1603.55" gradientTransform="translate(0 3300) scale(1 -1)" gradientUnits="userSpaceOnUse">
      <stop offset="0" stop-color="#faf1af"/>
      <stop offset=".12" stop-color="#f6eba9"/>
      <stop offset=".28" stop-color="#ebdc9a"/>
      <stop offset=".45" stop-color="#dac280"/>
      <stop offset=".63" stop-color="#c29f5d"/>
      <stop offset=".76" stop-color="#ae813f"/>
    </linearGradient>
    <radialGradient id="radial-gradient1" cx="1222.45" cy="1739.54" fx="1222.45" fy="1739.54" r="595.52" gradientTransform="translate(0 3300) scale(1 -1)" gradientUnits="userSpaceOnUse">
      <stop offset="0" stop-color="#faf1af"/>
      <stop offset=".12" stop-color="#f6eba9"/>
      <stop offset=".28" stop-color="#ebdc9a"/>
      <stop offset=".45" stop-color="#dac280"/>
      <stop offset=".63" stop-color="#c29f5d"/>
      <stop offset=".76" stop-color="#ae813f"/>
    </radialGradient>
    <radialGradient id="radial-gradient2" cx="1259.72" cy="1768.52" fx="1259.72" fy="1768.52" r="595.52" gradientTransform="translate(0 3300) scale(1 -1)" gradientUnits="userSpaceOnUse">
      <stop offset="0" stop-color="#faf1af"/>
      <stop offset=".12" stop-color="#f6eba9"/>
      <stop offset=".28" stop-color="#ebdc9a"/>
      <stop offset=".45" stop-color="#dac280"/>
      <stop offset=".63" stop-color="#c29f5d"/>
      <stop offset=".76" stop-color="#ae813f"/>
    </radialGradient>
    <filter id="drop-shadow-1" x="1506" y="1804.06" width="1131" height="216" filterUnits="userSpaceOnUse">
      <feOffset dx="-3" dy="-6"/>
      <feGaussianBlur result="blur" stdDeviation="5"/>
      <feFlood flood-color="#ffc200" flood-opacity=".75"/>
      <feComposite in2="blur" operator="in"/>
      <feComposite in="SourceGraphic"/>
    </filter>
    <linearGradient id="linear-gradient3" x1="1680.54" y1="2194.57" x2="1745.52" y2="1806.47" xlink:href="#linear-gradient1"/>
    <linearGradient id="linear-gradient4" x1="1972.32" y1="2243.42" x2="2037.29" y2="1855.32" xlink:href="#linear-gradient1"/>
    <linearGradient id="linear-gradient5" x1="2368.84" y1="2309.81" x2="2433.82" y2="1921.71" xlink:href="#linear-gradient1"/>
    <linearGradient id="linear-gradient6" x1="2207.06" y1="2282.72" x2="2272.04" y2="1894.62" xlink:href="#linear-gradient1"/>
    <linearGradient id="linear-gradient7" x1="2497.2" y1="2331.3" x2="2562.17" y2="1943.2" xlink:href="#linear-gradient1"/>
    <linearGradient id="linear-gradient8" x1="1535.61" y1="2170.3" x2="1600.58" y2="1782.21" xlink:href="#linear-gradient1"/>
    <linearGradient id="linear-gradient9" x1="2260.2" y1="2291.62" x2="2325.18" y2="1903.52" xlink:href="#linear-gradient1"/>
    <linearGradient id="linear-gradient10" x1="1739.35" y1="2204.42" x2="1804.33" y2="1816.32" gradientUnits="userSpaceOnUse">
      <stop offset="0" stop-color="#050829"/>
      <stop offset=".44" stop-color="#212e4c"/>
    </linearGradient>
    <linearGradient id="linear-gradient11" x1="2319.39" y1="2301.53" x2="2384.36" y2="1913.43" xlink:href="#linear-gradient1"/>
  </defs>
  <path class="st16" d="M1440.76,1844.5v-389.93c0-13.1-7.06-25.19-18.47-31.63l-346.61-195.67c-11.08-6.26-24.63-6.26-35.71,0l-346.61,195.67c-11.41,6.44-18.47,18.53-18.47,31.63v389.93c0,13.1,7.06,25.19,18.47,31.63l346.61,195.67c11.08,6.26,24.63,6.26,35.71,0l346.61-195.67c11.41-6.44,18.47-18.53,18.47-31.63Z"/>
  <path class="st3" d="M1409.65,1494.12v310.03c0,26.52-14.31,51.11-37.37,64.15l-277.59,157.14c-10.99,6.22-23.48,9.52-36.12,9.52s-25.13-3.3-36.14-9.52l-277.56-157.14c-23.06-13.04-37.37-37.63-37.37-64.15v-310.03c0-26.55,14.31-51.11,37.37-64.17l277.59-157.11c10.99-6.22,23.48-9.52,36.12-9.52s25.13,3.3,36.12,9.52l277.59,157.11c23.06,13.06,37.37,37.63,37.37,64.17h-.01Z"/>
  <path class="st0" d="M1084.22,1339.11c-29.4-2.26-54.32,21.48-54.32,50.97v83.18h-121.06c-40.74,0-77.61,16.5-104.3,43.19-26.69,26.71-43.19,63.59-43.19,104.3,0,81.46,66.04,147.49,147.49,147.49h121.06v149.64h28.67c15.84,0,28.67-12.83,28.67-28.67v-549.56c-.24-.24-1.32-.4-3.02-.54h0ZM908.89,1718.05c-47.86,0-86.81-42.44-86.81-94.61s38.95-94.61,86.81-94.61h121.02v189.22h-121.02Z"/>
  <path class="st1" d="M1096.88,1475.5l196.14,235.99-174.92,206.39h61.59l162.77-188.88c13.18-15.3,20.43-34.82,20.43-55.02v-110.5l-41.92,40.37v69.87l-64.69-81.77,99.88-116.44h-62.62l-67.28,81.25-67.8-81.25h-61.59.01Z"/>
  <path class="st8" d="M1084.22,1339.11c-29.4-2.26-54.32,21.48-54.32,50.97v83.18h-121.06c-40.74,0-77.61,16.5-104.3,43.19-26.69,26.71-43.19,63.59-43.19,104.3,0,81.46,66.04,147.49,147.49,147.49h121.06v149.64h28.67c15.84,0,28.67-12.83,28.67-28.67v-549.56c-.24-.24-1.32-.4-3.02-.54h0ZM908.89,1718.05c-47.86,0-86.81-42.44-86.81-94.61s38.95-94.61,86.81-94.61h121.02v189.22h-121.02Z"/>
  <path class="st14" d="M1096.88,1475.5l196.14,235.99-174.92,206.39h61.59l162.77-188.88c13.18-15.3,20.43-34.82,20.43-55.02v-110.5l-41.92,40.37v69.87l-64.69-81.77,99.88-116.44h-62.62l-67.28,81.25-67.8-81.25h-61.59.01Z"/>
  <g>
    <path class="st7" d="M1524.22,1475.59s45.31-.09,73.32-.09c48.34,0,83.21,5.32,107,25.27,25.32,20.33,40.67,51.41,40.67,95.15,0,46.42-15.73,80.57-40.28,102.82-25.71,23.4-67,29.84-117.26,29.84h-63.44v-252.98h-.01ZM1571.41,1689.33h27.29c61.39.38,101.44-26.52,101.44-92.12.38-56.78-37.05-82.55-96.13-82.55-14.96,0-22.77.17-32.6.35v174.32h0Z"/>
    <path class="st7" d="M1807.18,1496.28c0,13.66-10.25,25.05-26.57,25.05s-25.81-11.39-25.81-25.05c0-14.42,10.63-25.43,26.19-25.43s25.81,11.01,26.19,25.43h0ZM1757.46,1728.57v-180.68h46.69v180.68h-46.69Z"/>
    <path class="st7" d="M1972.41,1704.62c0,35.94-7.21,61.66-24.74,77.87-17.18,15.85-41.57,20.79-64.59,20.79-21.3,0-43.97-4.93-58.4-13.74l9.28-32.77c10.65,6.34,28.52,13.04,48.78,13.04,27.48,0,48.1-14.8,48.1-51.79v-14.8h-.69c-9.62,15.15-26.45,25.37-48.78,25.37-41.57,0-71.11-35.23-71.11-83.86,0-56.37,35.73-90.55,75.92-90.55,25.76,0,40.54,12.68,48.44,26.78h.69l1.72-22.9h36.76c-.69,11.63-1.37,25.72-1.37,49.33v97.24h-.01ZM1930.15,1626.75c0-4.23-.34-8.1-1.37-11.63-4.47-15.85-16.49-27.83-34.35-27.83-23.71,0-41.23,21.14-41.23,56.02,0,29.24,14.43,52.85,40.88,52.85,15.8,0,29.55-10.57,34.35-26.43,1.37-4.23,1.72-10.22,1.72-15.15v-27.83Z"/>
    <path class="st7" d="M2039.29,1728.66l-62.43-169.67h47.44l35.48,98.5,4.66,16.04,5.18-19.15,31.42-95.4h45.69l-47.61,124.9-44.51,105.58h-49.68l34.38-60.81h-.02Z"/>
    <path class="st7" d="M2151.14,1609.78c0-19.45-.68-35.78-1.35-50.37h36.12l2.02,25.36h1.01c7.43-13.2,25.31-29.18,52.65-29.18,28.69,0,58.39,19.11,58.39,72.6v100.39h-41.52v-95.52c0-24.31-8.77-42.73-31.39-42.73-16.54,0-28.01,12.16-32.4,25.01-1.35,3.47-2.03,8.68-2.03,13.55v99.69h-41.51v-118.8h.01Z"/>
    <path class="st7" d="M2351.07,1656.16c1.05,30.73,24.79,44,52.38,44,19.9,0,33.87-3.14,47.14-7.68l6.29,29.33c-14.67,6.29-34.92,10.82-59.36,10.82-55.17,0-87.64-33.87-87.64-85.9,0-47.14,28.63-91.48,83.1-91.48s73.33,45.39,73.33,82.75c0,8.03-.7,14.32-1.4,18.16h-113.84ZM2425.8,1626.13c.35-15.71-6.63-41.55-35.26-41.55-26.54,0-37.71,24.09-39.46,41.55h74.72Z"/>
    <path class="st7" d="M2506.41,1558.92l20.21,32.05c5.57,9.06,10.45,17.42,15.33,26.13h.7c4.88-9.41,9.75-18.11,14.98-26.82l18.81-31.35h46.68l-56.78,81.52,57.83,88.14h-48.77l-20.55-33.79c-5.57-9.06-10.45-18.11-15.33-27.52h-.7c-4.88,9.76-10.1,18.12-15.33,27.52l-19.51,33.79h-47.38l58.88-86.4-56.79-83.26h47.73,0Z"/>
  </g>
</svg>
